<?xml version="1.0" encoding="utf-8"?>
<!-- Generator: Adobe Illustrator 16.0.0, SVG Export Plug-In . SVG Version: 6.00 Build 0)  -->
<!DOCTYPE svg PUBLIC "-//W3C//DTD SVG 1.0//EN" "http://www.w3.org/TR/2001/REC-SVG-20010904/DTD/svg10.dtd">
<svg version="1.0" id="Layer_1" xmlns="http://www.w3.org/2000/svg" xmlns:xlink="http://www.w3.org/1999/xlink" x="0px" y="0px"
	 width="100px" height="100px" viewBox="0 0 100 100" enable-background="new 0 0 100 100" xml:space="preserve">
<path d="M50,10c-14.727,0-26.667,11.94-26.667,26.667c0,7.363,2.988,14.029,7.813,18.854l8.188,8.164c2.471,2.468,4,5.876,4,9.648
	C43.333,82.539,50.794,90,60,90s16.667-7.461,16.667-16.667V36.667C76.667,21.94,64.727,10,50,10z M70,73.333
	c0,5.515-4.485,10-10,10s-10-4.485-10-10c0-5.426-2.116-10.53-5.957-14.365l-8.19-8.167C32.083,47.028,30,42.005,30,36.667
	c0-11.029,8.972-20,20-20s20,8.971,20,20V73.333z"/>
<path d="M56.667,36.667c0,3.685-2.985,6.666-6.667,6.666c-3.679,0-6.667-2.981-6.667-6.666C43.333,32.988,46.321,30,50,30
	C53.682,30,56.667,32.988,56.667,36.667z"/>
</svg>
