<?xml version="1.0" encoding="UTF-8" standalone="no"?> <svg xmlns="http://www.w3.org/2000/svg" viewBox="0 0 64 64"><title>1</title><g id="Layer_45" data-name="Layer 45"><path d="M61,26.12a1,1,0,0,0-1-1H4a1,1,0,0,0-1,1A29,29,0,0,0,18,51.51v4.11A3.42,3.42,0,0,0,21.42,59H43.33a3.42,3.42,0,0,0,3.42-3.42V51.08A29,29,0,0,0,61,26.12Zm-2,1a26.87,26.87,0,0,1-1,6.23,6.67,6.67,0,0,0-5.38-4.17,8.08,8.08,0,0,0-7.73,3.59,6.73,6.73,0,0,0-.69-1.08,6.62,6.62,0,0,0-4.44-2.51A8.08,8.08,0,0,0,32,32.77a6.66,6.66,0,0,0-5.12-3.6,8.08,8.08,0,0,0-7.74,3.6,6.66,6.66,0,0,0-5.12-3.6A8.09,8.09,0,0,0,6,33.33a26.87,26.87,0,0,1-1-6.21ZM44.75,55.62A1.42,1.42,0,0,1,43.33,57H21.42A1.42,1.42,0,0,1,20,55.62V52.51a28.91,28.91,0,0,0,24.75-.35Zm1.16-6.37a.94.94,0,0,0-.16,0,1,1,0,0,0-.93.66,26.92,26.92,0,0,1-24.89.39,1,1,0,0,0-.93-.63,1,1,0,0,0-.19,0A27.16,27.16,0,0,1,7,36.41a6.08,6.08,0,0,1,6.77-5.25,4.67,4.67,0,0,1,4.06,5.2,3.53,3.53,0,0,1-3.93,3.07,2.63,2.63,0,0,1-2.2-1.87,2.51,2.51,0,0,0,.33.55,2.47,2.47,0,0,0,1.65.94,2.86,2.86,0,0,0,3.18-2.48A3.32,3.32,0,0,0,14,32.87a3.91,3.91,0,0,0-4.35,3.39,4.62,4.62,0,0,0,4,5.15,5.65,5.65,0,0,0,.69,0,5.53,5.53,0,0,0,5.48-4.85v0a.93.93,0,0,0,0-.12,6.08,6.08,0,0,1,6.77-5.29,4.67,4.67,0,0,1,4.06,5.2,3.53,3.53,0,0,1-3.93,3.07,2.63,2.63,0,0,1-2.2-1.87,2.5,2.5,0,0,0,.33.55,2.47,2.47,0,0,0,1.65.94,2.87,2.87,0,0,0,3.18-2.48,3.32,3.32,0,0,0-2.89-3.7,3.9,3.9,0,0,0-4.35,3.39,4.62,4.62,0,0,0,4,5.15,5.65,5.65,0,0,0,.69,0,5.53,5.53,0,0,0,5.48-4.85v0a.94.94,0,0,0,0-.12,6.08,6.08,0,0,1,6.77-5.29,4.66,4.66,0,0,1,4.06,5.2,3.53,3.53,0,0,1-3.94,3.07,2.6,2.6,0,0,1-1.75-1,2.63,2.63,0,0,1-.45-.88,2.5,2.5,0,0,0,2,1.49,2.85,2.85,0,0,0,3.18-2.48,3.32,3.32,0,0,0-2.89-3.7,3.91,3.91,0,0,0-4.35,3.39,4.62,4.62,0,0,0,4,5.15,5.66,5.66,0,0,0,.69,0,5.53,5.53,0,0,0,5.48-4.85v0a.94.94,0,0,0,0-.12,6.08,6.08,0,0,1,6.78-5.29,4.67,4.67,0,0,1,4.05,5.2,3.53,3.53,0,0,1-3.93,3.07,2.63,2.63,0,0,1-2.2-1.87,2.5,2.5,0,0,0,.33.55,2.47,2.47,0,0,0,1.65.94,2.86,2.86,0,0,0,3.18-2.48,3.32,3.32,0,0,0-2.89-3.7,3.91,3.91,0,0,0-4.35,3.39,4.62,4.62,0,0,0,4,5.15,5.66,5.66,0,0,0,.69,0,5.46,5.46,0,0,0,1.39-.2A27.2,27.2,0,0,1,45.91,49.25ZM12.08,35.53a1.9,1.9,0,0,1,1.69-.67,1.32,1.32,0,0,1,1.15,1.47.85.85,0,0,1-1,.74.48.48,0,0,1-.42-.54,1,1,0,0,0-.87-1.12h-.12A1,1,0,0,0,12.08,35.53Zm12.86,0a2,2,0,0,1,.29-.28,1.89,1.89,0,0,1,1.4-.39,1.32,1.32,0,0,1,1.15,1.47.85.85,0,0,1-1,.74.48.48,0,0,1-.42-.54,1,1,0,0,0-.87-1.12H25.4A1,1,0,0,0,24.93,35.53Zm12.86,0a1.9,1.9,0,0,1,1.69-.67,1.32,1.32,0,0,1,1.15,1.47.85.85,0,0,1-1,.74.48.48,0,0,1-.42-.54,1,1,0,0,0-.87-1.12h-.12A1,1,0,0,0,37.79,35.53Zm12.86,0a1.9,1.9,0,0,1,1.69-.67,1.32,1.32,0,0,1,1.15,1.47.85.85,0,0,1-1,.74.48.48,0,0,1-.42-.54,1,1,0,0,0-.87-1.12h-.12A1,1,0,0,0,50.65,35.53Z"/><path d="M51.48,17.29c-1,.64-2.48,1.51-2.48,3.29a1,1,0,0,0,2,0c0-.6.46-.94,1.52-1.58S55,17.49,55,15.71s-1.43-2.65-2.48-3.29S51,11.43,51,10.83s.46-.94,1.52-1.58S55,7.74,55,6a1,1,0,0,0-2,0c0,.59-.46.94-1.52,1.58S49,9.05,49,10.83s1.43,2.65,2.48,3.29,1.52,1,1.52,1.58S52.54,16.65,51.48,17.29Z"/><path d="M38.15,17.29c-1,.64-2.48,1.51-2.48,3.29a1,1,0,0,0,2,0c0-.6.46-.94,1.52-1.58s2.48-1.51,2.48-3.29-1.43-2.65-2.48-3.29-1.52-1-1.52-1.58.46-.94,1.52-1.58S41.67,7.74,41.67,6a1,1,0,0,0-2,0c0,.59-.46.94-1.52,1.58s-2.48,1.51-2.48,3.29,1.43,2.65,2.48,3.29,1.52,1,1.52,1.58S39.2,16.65,38.15,17.29Z"/><path d="M24.81,17.29c-1,.64-2.48,1.51-2.48,3.29a1,1,0,0,0,2,0c0-.6.46-.94,1.52-1.58s2.48-1.51,2.48-3.29-1.43-2.65-2.48-3.29-1.52-1-1.52-1.58.46-.94,1.52-1.58S28.33,7.74,28.33,6a1,1,0,1,0-2,0c0,.59-.46.94-1.52,1.58s-2.48,1.51-2.48,3.29,1.43,2.65,2.48,3.29,1.52,1,1.52,1.58S25.87,16.65,24.81,17.29Z"/><path d="M11.48,17.29C10.43,17.93,9,18.8,9,20.58a1,1,0,0,0,2,0c0-.6.46-.94,1.52-1.58S15,17.49,15,15.71s-1.43-2.65-2.48-3.29S11,11.43,11,10.83s.46-.94,1.52-1.58S15,7.74,15,6a1,1,0,0,0-2,0c0,.59-.46.94-1.52,1.58S9,9.05,9,10.83s1.43,2.65,2.48,3.29,1.52,1,1.52,1.58S12.54,16.65,11.48,17.29Z"/></g></svg>