<?xml version="1.0" encoding="utf-8"?>
<!-- Generator: Adobe Illustrator 16.0.0, SVG Export Plug-In . SVG Version: 6.00 Build 0)  -->
<!DOCTYPE svg PUBLIC "-//W3C//DTD SVG 1.0//EN" "http://www.w3.org/TR/2001/REC-SVG-20010904/DTD/svg10.dtd">
<svg version="1.0" id="Layer_1" xmlns="http://www.w3.org/2000/svg" xmlns:xlink="http://www.w3.org/1999/xlink" x="0px" y="0px"
	 width="100px" height="100px" viewBox="0 0 100 100" enable-background="new 0 0 100 100" xml:space="preserve">
<path d="M83.333,60l-5.569-33.425C77.161,22.955,73.665,20,70,20H30c-3.665,0-7.161,2.955-7.761,6.575L16.667,60H10v6.667
	C10,74.03,15.97,80,23.333,80h53.334C84.03,80,90,74.03,90,66.667V60H83.333z M28.815,27.669c0.064-0.403,0.774-1.002,1.185-1.002
	h40c0.41,0,1.12,0.599,1.188,1.002l0.943,5.664H27.871L28.815,27.669z M26.758,40H50v3.333c0,1.843,1.491,3.334,3.333,3.334
	c1.843,0,3.334-1.491,3.334-3.334V40H60v10c0,1.843,1.491,3.333,3.333,3.333c1.843,0,3.334-1.49,3.334-3.333V40h6.575l3.333,20
	h-53.15L26.758,40z M76.667,73.333H23.333c-3.678,0-6.666-2.994-6.666-6.666h66.666C83.333,70.345,80.342,73.333,76.667,73.333z"/>
</svg>
