<?xml version="1.0" encoding="UTF-8" standalone="no"?> <svg xmlns="http://www.w3.org/2000/svg" viewBox="0 0 64 64"><g id="pineapple"><path d="M45.86,22.44s0,0,0,0a1,1,0,0,0-.41-.67A8.52,8.52,0,0,0,37.18,21,6.11,6.11,0,0,1,42,18.77a1,1,0,0,0,.74-1.67,1.1,1.1,0,0,0-.31-.37,8.25,8.25,0,0,0-4.13-1.44,6,6,0,0,1,4-4.57,1,1,0,0,0,.65-.86A1,1,0,0,0,43,9.45a1,1,0,0,0-1-1,11.58,11.58,0,0,0-6.54,2l-2.52-6.8A1,1,0,0,0,32,3h0a1,1,0,0,0-.94.65l-2.52,6.83a11.53,11.53,0,0,0-6.58-2,1,1,0,0,0-1,1,1,1,0,0,0,.09.41,1,1,0,0,0,.64.86,6,6,0,0,1,4,4.57,8.22,8.22,0,0,0-4.13,1.44,1,1,0,0,0-.31.37A1,1,0,0,0,22,18.77,6.13,6.13,0,0,1,26.78,21a8.52,8.52,0,0,0-8.25.73,1,1,0,0,0-.41.67s0,0,0,0a1,1,0,0,0,.6,1.28,6.23,6.23,0,0,1,3.51,3.14A11.92,11.92,0,0,0,19,35V49A12,12,0,0,0,31,61h2A12,12,0,0,0,45,49V35a12,12,0,0,0-3.24-8.16,6.21,6.21,0,0,1,3.5-3.12A1,1,0,0,0,45.86,22.44Zm-3,.23a8.15,8.15,0,0,0-2.66,2.79,11.84,11.84,0,0,0-3.53-1.86A6.44,6.44,0,0,1,42.9,22.67ZM27.67,15.38a7.51,7.51,0,0,0-1.81-4.12,8.32,8.32,0,0,1,4.76,5.17A8.21,8.21,0,0,0,27.67,15.38ZM38.1,11.26a7.51,7.51,0,0,0-1.81,4.12,8.34,8.34,0,0,0-2.95,1A8.3,8.3,0,0,1,38.1,11.26ZM32,6.88l1.83,4.93A9.84,9.84,0,0,0,32,14.42a10.14,10.14,0,0,0-1.81-2.57Zm-6.88,10.5A6.23,6.23,0,0,1,31,19.33a1,1,0,0,0,.77.35.79.79,0,0,0,.2,0,.71.71,0,0,0,.2,0,1,1,0,0,0,.76-.35,6.28,6.28,0,0,1,5.9-1.95,7.32,7.32,0,0,0-4.66,5.68A11.51,11.51,0,0,0,33,23H31c-.41,0-.82,0-1.22.06A7.34,7.34,0,0,0,25.12,17.38Zm2.14,6.23a11.73,11.73,0,0,0-3.53,1.87,8.24,8.24,0,0,0-2.67-2.81A6.44,6.44,0,0,1,27.26,23.61ZM43,38.59v5.58l-.29-.29a1,1,0,0,0-1.42,0,1,1,0,0,0,0,1.41L43,47v2a9.42,9.42,0,0,1-.08,1.2,1,1,0,0,0-.21-.32,1,1,0,0,0-1.42,0L40,51.17l-1.29-1.29a1,1,0,0,0-1.42,0,1,1,0,0,0,0,1.41l2,2a1,1,0,0,0,1.42,0l2-2s0,0,0,0A10,10,0,0,1,33,59l1.71-1.71a1,1,0,0,0,0-1.41,1,1,0,0,0-1.42,0L32,57.17l-1.29-1.29a1,1,0,0,0-1.42,0,1,1,0,0,0,0,1.41L31,59a10,10,0,0,1-9.74-7.75s0,0,0,0l2,2a1,1,0,0,0,1.42,0l2-2a1,1,0,0,0,0-1.41,1,1,0,0,0-1.42,0L24,51.17l-1.29-1.29a1,1,0,0,0-1.42,0,1,1,0,0,0-.21.32A9.42,9.42,0,0,1,21,49V47l1.71-1.71a1,1,0,0,0,0-1.41,1,1,0,0,0-1.42,0l-.29.29V35A10,10,0,0,1,31,25h2A10,10,0,0,1,43,35Z"/><path d="M31.29,29.29a1,1,0,0,0,1.42,0l2-2a1,1,0,0,0,0-1.41,1,1,0,0,0-1.42,0L32,27.17l-1.29-1.29a1,1,0,0,0-1.42,0,1,1,0,0,0,0,1.41Z"/><path d="M30.71,37.88a1,1,0,0,0-1.42,0,1,1,0,0,0,0,1.41l2,2a1,1,0,0,0,1.42,0l2-2a1,1,0,0,0,0-1.41,1,1,0,0,0-1.42,0L32,39.17Z"/><path d="M41.29,37.88,40,39.17l-1.29-1.29a1,1,0,0,0-1.42,0,1,1,0,0,0,0,1.41l2,2a1,1,0,0,0,1.42,0l2-2a1,1,0,0,0-1.42-1.41Z"/><path d="M23.29,41.29a1,1,0,0,0,1.42,0l2-2a1,1,0,0,0,0-1.41,1,1,0,0,0-1.42,0L24,39.17l-1.29-1.29a1,1,0,0,0-1.42,1.41Z"/><path d="M33.29,49.88,32,51.17l-1.29-1.29a1,1,0,0,0-1.42,0,1,1,0,0,0,0,1.41l2,2a1,1,0,0,0,1.42,0l2-2a1,1,0,0,0,0-1.41A1,1,0,0,0,33.29,49.88Z"/><path d="M30.71,43.88a1,1,0,0,0-1.42,0L28,45.17l-1.29-1.29a1,1,0,0,0-1.42,0,1,1,0,0,0,0,1.41l2,2a1,1,0,0,0,1.42,0l2-2A1,1,0,0,0,30.71,43.88Z"/><path d="M34.71,43.88a1,1,0,0,0-1.42,0,1,1,0,0,0,0,1.41l2,2a1,1,0,0,0,1.42,0l2-2a1,1,0,0,0,0-1.41,1,1,0,0,0-1.42,0L36,45.17Z"/><path d="M28,35.59a1,1,0,0,0,.71-.3l2-2a1,1,0,0,0,0-1.41,1,1,0,0,0-1.42,0L28,33.17l-1.29-1.29a1,1,0,0,0-1.42,0,1,1,0,0,0,0,1.41l2,2A1,1,0,0,0,28,35.59Z"/><path d="M37.29,31.88,36,33.17l-1.29-1.29a1,1,0,0,0-1.42,0,1,1,0,0,0,0,1.41l2,2a1,1,0,0,0,1.42,0l2-2a1,1,0,0,0,0-1.41A1,1,0,0,0,37.29,31.88Z"/></g></svg>